<?xml version="1.0" encoding="us-ascii" standalone="no"?><svg xmlns="http://www.w3.org/2000/svg" xmlns:xlink="http://www.w3.org/1999/xlink" contentStyleType="text/css" height="948px" preserveAspectRatio="none" style="width:1252px;height:948px;background:#FFFFFF;" version="1.1" viewBox="0 0 1252 948" width="1252px" zoomAndPan="magnify"><defs/><g><rect fill="#FFFFFF" height="497.5898" style="stroke:#AAAAAA;stroke-width:1.0;" width="10" x="37.5" y="374.3926"/><rect fill="#FFFFFF" height="205.1738" style="stroke:#AAAAAA;stroke-width:1.0;" width="10" x="179.5" y="108.5977"/><rect fill="#FFFFFF" height="497.5898" style="stroke:#AAAAAA;stroke-width:1.0;" width="10" x="179.5" y="374.3926"/><rect fill="#FFFFFF" height="58.6211" style="stroke:#AAAAAA;stroke-width:1.0;" width="10" x="427.5" y="255.1504"/><rect fill="#FFFFFF" height="497.5898" style="stroke:#AAAAAA;stroke-width:1.0;" width="10" x="427.5" y="374.3926"/><rect fill="#FFFFFF" height="205.1738" style="stroke:#AAAAAA;stroke-width:1.0;" width="10" x="637.5" y="108.5977"/><rect fill="#FFFFFF" height="497.5898" style="stroke:#AAAAAA;stroke-width:1.0;" width="10" x="637.5" y="374.3926"/><rect fill="#FFFFFF" height="205.1738" style="stroke:#AAAAAA;stroke-width:1.0;" width="10" x="832.5" y="108.5977"/><rect fill="#FFFFFF" height="497.5898" style="stroke:#AAAAAA;stroke-width:1.0;" width="10" x="832.5" y="374.3926"/><rect fill="#FFFFFF" height="497.5898" style="stroke:#AAAAAA;stroke-width:1.0;" width="10" x="995.5" y="374.3926"/><rect fill="#FFFFFF" height="497.5898" style="stroke:#AAAAAA;stroke-width:1.0;" width="10" x="1143.5" y="374.3926"/><rect fill="none" height="251.7949" rx="5" ry="5" style="stroke:#000000;stroke-width:1.5;" width="763.5" x="129.5" y="69.9766"/><rect fill="none" height="544.2109" rx="5" ry="5" style="stroke:#000000;stroke-width:1.5;" width="1236.5" x="10" y="335.7715"/><line style="stroke:#AAAAAA;stroke-width:0.5;stroke-dasharray:5.0,5.0;" x1="42" x2="42" y1="52.9766" y2="896.9824"/><line style="stroke:#AAAAAA;stroke-width:0.5;stroke-dasharray:5.0,5.0;" x1="184.5" x2="184.5" y1="52.9766" y2="896.9824"/><line style="stroke:#AAAAAA;stroke-width:0.5;stroke-dasharray:5.0,5.0;" x1="432" x2="432" y1="52.9766" y2="896.9824"/><line style="stroke:#AAAAAA;stroke-width:0.5;stroke-dasharray:5.0,5.0;" x1="642.5" x2="642.5" y1="52.9766" y2="896.9824"/><line style="stroke:#AAAAAA;stroke-width:0.5;stroke-dasharray:5.0,5.0;" x1="837" x2="837" y1="52.9766" y2="896.9824"/><line style="stroke:#AAAAAA;stroke-width:0.5;stroke-dasharray:5.0,5.0;" x1="1000" x2="1000" y1="52.9766" y2="896.9824"/><line style="stroke:#AAAAAA;stroke-width:0.5;stroke-dasharray:5.0,5.0;" x1="1148.5" x2="1148.5" y1="52.9766" y2="896.9824"/><rect fill="#222222" height="30.4883" rx="5" ry="5" style="stroke:#222222;stroke-width:0.5;" width="45" x="20" y="21.4883"/><text fill="#FFFFFF" font-family="sans-serif" font-size="14" lengthAdjust="spacing" textLength="31" x="27" y="42.0234">User</text><rect fill="#222222" height="30.4883" rx="5" ry="5" style="stroke:#222222;stroke-width:0.5;" width="45" x="20" y="895.9824"/><text fill="#FFFFFF" font-family="sans-serif" font-size="14" lengthAdjust="spacing" textLength="31" x="27" y="916.5176">User</text><rect fill="#222222" height="30.4883" rx="5" ry="5" style="stroke:#222222;stroke-width:0.5;" width="90" x="139.5" y="21.4883"/><text fill="#FFFFFF" font-family="sans-serif" font-size="14" lengthAdjust="spacing" textLength="76" x="146.5" y="42.0234">Chat Client</text><rect fill="#222222" height="30.4883" rx="5" ry="5" style="stroke:#222222;stroke-width:0.5;" width="90" x="139.5" y="895.9824"/><text fill="#FFFFFF" font-family="sans-serif" font-size="14" lengthAdjust="spacing" textLength="76" x="146.5" y="916.5176">Chat Client</text><rect fill="#222222" height="46.9766" rx="5" ry="5" style="stroke:#222222;stroke-width:0.5;" width="111" x="377" y="5"/><text fill="#FFFFFF" font-family="sans-serif" font-size="14" lengthAdjust="spacing" textLength="26" x="419.5" y="25.5352">LLM</text><text fill="#FFFFFF" font-family="sans-serif" font-size="14" lengthAdjust="spacing" textLength="97" x="384" y="42.0234">(gpt-4o-mini)</text><rect fill="#222222" height="46.9766" rx="5" ry="5" style="stroke:#222222;stroke-width:0.5;" width="111" x="377" y="895.9824"/><text fill="#FFFFFF" font-family="sans-serif" font-size="14" lengthAdjust="spacing" textLength="26" x="419.5" y="916.5176">LLM</text><text fill="#FFFFFF" font-family="sans-serif" font-size="14" lengthAdjust="spacing" textLength="97" x="384" y="933.0059">(gpt-4o-mini)</text><rect fill="#222222" height="30.4883" rx="5" ry="5" style="stroke:#222222;stroke-width:0.5;" width="88" x="598.5" y="21.4883"/><text fill="#FFFFFF" font-family="sans-serif" font-size="14" lengthAdjust="spacing" textLength="74" x="605.5" y="42.0234">MCP Client</text><rect fill="#222222" height="30.4883" rx="5" ry="5" style="stroke:#222222;stroke-width:0.5;" width="88" x="598.5" y="895.9824"/><text fill="#FFFFFF" font-family="sans-serif" font-size="14" lengthAdjust="spacing" textLength="74" x="605.5" y="916.5176">MCP Client</text><rect fill="#222222" height="30.4883" rx="5" ry="5" style="stroke:#222222;stroke-width:0.5;" width="91" x="792" y="21.4883"/><text fill="#FFFFFF" font-family="sans-serif" font-size="14" lengthAdjust="spacing" textLength="77" x="799" y="42.0234">MCP Server</text><rect fill="#222222" height="30.4883" rx="5" ry="5" style="stroke:#222222;stroke-width:0.5;" width="91" x="792" y="895.9824"/><text fill="#FFFFFF" font-family="sans-serif" font-size="14" lengthAdjust="spacing" textLength="77" x="799" y="916.5176">MCP Server</text><rect fill="#222222" height="30.4883" rx="5" ry="5" style="stroke:#222222;stroke-width:0.5;" width="45" x="978" y="21.4883"/><text fill="#FFFFFF" font-family="sans-serif" font-size="14" lengthAdjust="spacing" textLength="31" x="985" y="42.0234">Tool</text><rect fill="#222222" height="30.4883" rx="5" ry="5" style="stroke:#222222;stroke-width:0.5;" width="45" x="978" y="895.9824"/><text fill="#FFFFFF" font-family="sans-serif" font-size="14" lengthAdjust="spacing" textLength="31" x="985" y="916.5176">Tool</text><rect fill="#222222" height="46.9766" rx="5" ry="5" style="stroke:#222222;stroke-width:0.5;" width="176" x="1060.5" y="5"/><text fill="#FFFFFF" font-family="sans-serif" font-size="14" lengthAdjust="spacing" textLength="82" x="1107.5" y="25.5352">Data Source</text><text fill="#FFFFFF" font-family="sans-serif" font-size="14" lengthAdjust="spacing" textLength="162" x="1067.5" y="42.0234">(MongoDB, PostgreSQL)</text><rect fill="#222222" height="46.9766" rx="5" ry="5" style="stroke:#222222;stroke-width:0.5;" width="176" x="1060.5" y="895.9824"/><text fill="#FFFFFF" font-family="sans-serif" font-size="14" lengthAdjust="spacing" textLength="82" x="1107.5" y="916.5176">Data Source</text><text fill="#FFFFFF" font-family="sans-serif" font-size="14" lengthAdjust="spacing" textLength="162" x="1067.5" y="933.0059">(MongoDB, PostgreSQL)</text><rect fill="#FFFFFF" height="497.5898" style="stroke:#AAAAAA;stroke-width:1.0;" width="10" x="37.5" y="374.3926"/><rect fill="#FFFFFF" height="205.1738" style="stroke:#AAAAAA;stroke-width:1.0;" width="10" x="179.5" y="108.5977"/><rect fill="#FFFFFF" height="497.5898" style="stroke:#AAAAAA;stroke-width:1.0;" width="10" x="179.5" y="374.3926"/><rect fill="#FFFFFF" height="58.6211" style="stroke:#AAAAAA;stroke-width:1.0;" width="10" x="427.5" y="255.1504"/><rect fill="#FFFFFF" height="497.5898" style="stroke:#AAAAAA;stroke-width:1.0;" width="10" x="427.5" y="374.3926"/><rect fill="#FFFFFF" height="205.1738" style="stroke:#AAAAAA;stroke-width:1.0;" width="10" x="637.5" y="108.5977"/><rect fill="#FFFFFF" height="497.5898" style="stroke:#AAAAAA;stroke-width:1.0;" width="10" x="637.5" y="374.3926"/><rect fill="#FFFFFF" height="205.1738" style="stroke:#AAAAAA;stroke-width:1.0;" width="10" x="832.5" y="108.5977"/><rect fill="#FFFFFF" height="497.5898" style="stroke:#AAAAAA;stroke-width:1.0;" width="10" x="832.5" y="374.3926"/><rect fill="#FFFFFF" height="497.5898" style="stroke:#AAAAAA;stroke-width:1.0;" width="10" x="995.5" y="374.3926"/><rect fill="#FFFFFF" height="497.5898" style="stroke:#AAAAAA;stroke-width:1.0;" width="10" x="1143.5" y="374.3926"/><path d="M134.5,69.9766 L358.5,69.9766 L358.5,77.2871 L348.5,87.2871 L129.5,87.2871 L129.5,74.9766 A5,5 0 0 1 134.5,69.9766 " fill="#EEEEEE" style="stroke:#000000;stroke-width:1.5;"/><rect fill="none" height="251.7949" rx="5" ry="5" style="stroke:#000000;stroke-width:1.5;" width="763.5" x="129.5" y="69.9766"/><text fill="#000000" font-family="sans-serif" font-size="13" font-weight="bold" lengthAdjust="spacing" textLength="184" x="144.5" y="83.5449">Initialization and Discovery</text><polygon fill="#181818" points="625.5,104.5977,635.5,108.5977,625.5,112.5977,629.5,108.5977" style="stroke:#181818;stroke-width:1.0;"/><line style="stroke:#181818;stroke-width:2.0;" x1="189.5" x2="631.5" y1="108.5977" y2="108.5977"/><text fill="#000000" font-family="sans-serif" font-size="13" lengthAdjust="spacing" textLength="133" x="196.5" y="103.8555">Initialization Request</text><polygon fill="#181818" points="820.5,133.9082,830.5,137.9082,820.5,141.9082,824.5,137.9082" style="stroke:#181818;stroke-width:1.0;"/><line style="stroke:#181818;stroke-width:2.0;" x1="647.5" x2="826.5" y1="137.9082" y2="137.9082"/><text fill="#000000" font-family="sans-serif" font-size="13" lengthAdjust="spacing" textLength="52" x="654.5" y="133.166">Connect</text><polygon fill="#181818" points="658.5,163.2188,648.5,167.2188,658.5,171.2188,654.5,167.2188" style="stroke:#181818;stroke-width:1.0;"/><line style="stroke:#181818;stroke-width:2.0;stroke-dasharray:2.0,2.0;" x1="652.5" x2="831.5" y1="167.2188" y2="167.2188"/><text fill="#000000" font-family="sans-serif" font-size="13" lengthAdjust="spacing" textLength="148" x="664.5" y="162.4766">Connection established</text><polygon fill="#181818" points="820.5,192.5293,830.5,196.5293,820.5,200.5293,824.5,196.5293" style="stroke:#181818;stroke-width:1.0;"/><line style="stroke:#181818;stroke-width:2.0;" x1="647.5" x2="826.5" y1="196.5293" y2="196.5293"/><text fill="#000000" font-family="sans-serif" font-size="13" lengthAdjust="spacing" textLength="128" x="654.5" y="191.7871">Request Capabilities</text><polygon fill="#181818" points="658.5,221.8398,648.5,225.8398,658.5,229.8398,654.5,225.8398" style="stroke:#181818;stroke-width:1.0;"/><line style="stroke:#181818;stroke-width:2.0;stroke-dasharray:2.0,2.0;" x1="652.5" x2="831.5" y1="225.8398" y2="225.8398"/><text fill="#000000" font-family="sans-serif" font-size="13" lengthAdjust="spacing" textLength="136" x="664.5" y="221.0977">Return available tools</text><polygon fill="#181818" points="200.5,251.1504,190.5,255.1504,200.5,259.1504,196.5,255.1504" style="stroke:#181818;stroke-width:1.0;"/><line style="stroke:#181818;stroke-width:2.0;" x1="194.5" x2="636.5" y1="255.1504" y2="255.1504"/><text fill="#000000" font-family="sans-serif" font-size="13" lengthAdjust="spacing" textLength="146" x="206.5" y="250.4082">Register available tools</text><polygon fill="#181818" points="415.5,280.4609,425.5,284.4609,415.5,288.4609,419.5,284.4609" style="stroke:#181818;stroke-width:1.0;"/><line style="stroke:#181818;stroke-width:2.0;" x1="189.5" x2="421.5" y1="284.4609" y2="284.4609"/><text fill="#000000" font-family="sans-serif" font-size="13" lengthAdjust="spacing" textLength="205" x="196.5" y="279.7188">Make tools available to AI model</text><polygon fill="#181818" points="195.5,309.7715,185.5,313.7715,195.5,317.7715,191.5,313.7715" style="stroke:#181818;stroke-width:1.0;"/><line style="stroke:#181818;stroke-width:2.0;stroke-dasharray:2.0,2.0;" x1="189.5" x2="431.5" y1="313.7715" y2="313.7715"/><text fill="#000000" font-family="sans-serif" font-size="13" lengthAdjust="spacing" textLength="214" x="201.5" y="309.0293">Tools made available successfully</text><path d="M15,335.7715 L231,335.7715 L231,343.082 L221,353.082 L10,353.082 L10,340.7715 A5,5 0 0 1 15,335.7715 " fill="#EEEEEE" style="stroke:#000000;stroke-width:1.5;"/><rect fill="none" height="544.2109" rx="5" ry="5" style="stroke:#000000;stroke-width:1.5;" width="1236.5" x="10" y="335.7715"/><text fill="#000000" font-family="sans-serif" font-size="13" font-weight="bold" lengthAdjust="spacing" textLength="176" x="25" y="349.3398">Processing a User request</text><polygon fill="#181818" points="167.5,370.3926,177.5,374.3926,167.5,378.3926,171.5,374.3926" style="stroke:#181818;stroke-width:1.0;"/><line style="stroke:#181818;stroke-width:2.0;" x1="47.5" x2="173.5" y1="374.3926" y2="374.3926"/><text fill="#000000" font-family="sans-serif" font-size="13" font-style="italic" lengthAdjust="spacing" textLength="116" x="54.5" y="369.6504">"get alls products"</text><polygon fill="#181818" points="415.5,399.7031,425.5,403.7031,415.5,407.7031,419.5,403.7031" style="stroke:#181818;stroke-width:1.0;"/><line style="stroke:#181818;stroke-width:2.0;" x1="189.5" x2="421.5" y1="403.7031" y2="403.7031"/><text fill="#000000" font-family="sans-serif" font-size="13" font-style="italic" lengthAdjust="spacing" textLength="116" x="196.5" y="398.9609">"get alls products"</text><line style="stroke:#181818;stroke-width:2.0;" x1="437.5" x2="479.5" y1="448.3242" y2="448.3242"/><line style="stroke:#181818;stroke-width:2.0;" x1="479.5" x2="479.5" y1="448.3242" y2="461.3242"/><line style="stroke:#181818;stroke-width:2.0;" x1="438.5" x2="479.5" y1="461.3242" y2="461.3242"/><polygon fill="#181818" points="448.5,457.3242,438.5,461.3242,448.5,465.3242,444.5,461.3242" style="stroke:#181818;stroke-width:1.0;"/><text fill="#000000" font-family="sans-serif" font-size="13" lengthAdjust="spacing" textLength="128" x="444.5" y="428.2715">AI model recognizes</text><text fill="#000000" font-family="sans-serif" font-size="13" lengthAdjust="spacing" textLength="162" x="444.5" y="443.582">the need for external data</text><polygon fill="#181818" points="200.5,501.9453,190.5,505.9453,200.5,509.9453,196.5,505.9453" style="stroke:#181818;stroke-width:1.0;"/><line style="stroke:#181818;stroke-width:2.0;" x1="194.5" x2="426.5" y1="505.9453" y2="505.9453"/><text fill="#000000" font-family="sans-serif" font-size="13" lengthAdjust="spacing" textLength="119" x="206.5" y="485.8926">AI model identifies</text><text fill="#000000" font-family="sans-serif" font-size="13" lengthAdjust="spacing" textLength="91" x="206.5" y="501.2031">available tools</text><polygon fill="#181818" points="625.5,531.2559,635.5,535.2559,625.5,539.2559,629.5,535.2559" style="stroke:#181818;stroke-width:1.0;"/><line style="stroke:#181818;stroke-width:2.0;" x1="189.5" x2="631.5" y1="535.2559" y2="535.2559"/><text fill="#000000" font-family="sans-serif" font-size="13" lengthAdjust="spacing" textLength="145" x="196.5" y="530.5137">Request tool execution</text><polygon fill="#181818" points="820.5,560.5664,830.5,564.5664,820.5,568.5664,824.5,564.5664" style="stroke:#181818;stroke-width:1.0;"/><line style="stroke:#181818;stroke-width:2.0;" x1="647.5" x2="826.5" y1="564.5664" y2="564.5664"/><text fill="#000000" font-family="sans-serif" font-size="13" lengthAdjust="spacing" textLength="161" x="654.5" y="559.8242">Send sandardized request</text><polygon fill="#181818" points="983.5,589.877,993.5,593.877,983.5,597.877,987.5,593.877" style="stroke:#181818;stroke-width:1.0;"/><line style="stroke:#181818;stroke-width:2.0;" x1="842.5" x2="989.5" y1="593.877" y2="593.877"/><text fill="#000000" font-family="sans-serif" font-size="13" lengthAdjust="spacing" textLength="129" x="849.5" y="589.1348">Execute tool request</text><polygon fill="#181818" points="1131.5,619.1875,1141.5,623.1875,1131.5,627.1875,1135.5,623.1875" style="stroke:#181818;stroke-width:1.0;"/><line style="stroke:#181818;stroke-width:2.0;" x1="1005.5" x2="1137.5" y1="623.1875" y2="623.1875"/><text fill="#000000" font-family="sans-serif" font-size="13" lengthAdjust="spacing" textLength="114" x="1012.5" y="618.4453">Query data source</text><polygon fill="#181818" points="1016.5,648.498,1006.5,652.498,1016.5,656.498,1012.5,652.498" style="stroke:#181818;stroke-width:1.0;"/><line style="stroke:#181818;stroke-width:2.0;stroke-dasharray:2.0,2.0;" x1="1010.5" x2="1142.5" y1="652.498" y2="652.498"/><text fill="#000000" font-family="sans-serif" font-size="13" lengthAdjust="spacing" textLength="72" x="1022.5" y="647.7559">Return data</text><polygon fill="#181818" points="853.5,677.8086,843.5,681.8086,853.5,685.8086,849.5,681.8086" style="stroke:#181818;stroke-width:1.0;"/><line style="stroke:#181818;stroke-width:2.0;stroke-dasharray:2.0,2.0;" x1="847.5" x2="994.5" y1="681.8086" y2="681.8086"/><text fill="#000000" font-family="sans-serif" font-size="13" lengthAdjust="spacing" textLength="88" x="859.5" y="677.0664">Return results</text><polygon fill="#181818" points="658.5,707.1191,648.5,711.1191,658.5,715.1191,654.5,711.1191" style="stroke:#181818;stroke-width:1.0;"/><line style="stroke:#181818;stroke-width:2.0;stroke-dasharray:2.0,2.0;" x1="652.5" x2="831.5" y1="711.1191" y2="711.1191"/><text fill="#000000" font-family="sans-serif" font-size="13" lengthAdjust="spacing" textLength="149" x="664.5" y="706.377">Return formated results</text><polygon fill="#181818" points="448.5,751.7402,438.5,755.7402,448.5,759.7402,444.5,755.7402" style="stroke:#181818;stroke-width:1.0;"/><line style="stroke:#181818;stroke-width:2.0;stroke-dasharray:2.0,2.0;" x1="442.5" x2="636.5" y1="755.7402" y2="755.7402"/><text fill="#000000" font-family="sans-serif" font-size="13" lengthAdjust="spacing" textLength="99" x="454.5" y="735.6875">Deliver external</text><text fill="#000000" font-family="sans-serif" font-size="13" lengthAdjust="spacing" textLength="104" x="454.5" y="750.998">data to AI model</text><line style="stroke:#181818;stroke-width:2.0;" x1="437.5" x2="479.5" y1="800.3613" y2="800.3613"/><line style="stroke:#181818;stroke-width:2.0;" x1="479.5" x2="479.5" y1="800.3613" y2="813.3613"/><line style="stroke:#181818;stroke-width:2.0;" x1="438.5" x2="479.5" y1="813.3613" y2="813.3613"/><polygon fill="#181818" points="448.5,809.3613,438.5,813.3613,448.5,817.3613,444.5,813.3613" style="stroke:#181818;stroke-width:1.0;"/><text fill="#000000" font-family="sans-serif" font-size="13" lengthAdjust="spacing" textLength="182" x="444.5" y="780.3086">AI model generates response</text><text fill="#000000" font-family="sans-serif" font-size="13" lengthAdjust="spacing" textLength="111" x="444.5" y="795.6191">with product data</text><polygon fill="#181818" points="200.5,838.6719,190.5,842.6719,200.5,846.6719,196.5,842.6719" style="stroke:#181818;stroke-width:1.0;"/><line style="stroke:#181818;stroke-width:2.0;" x1="194.5" x2="426.5" y1="842.6719" y2="842.6719"/><text fill="#000000" font-family="sans-serif" font-size="13" lengthAdjust="spacing" textLength="102" x="206.5" y="837.9297">Return response</text><polygon fill="#181818" points="53.5,867.9824,43.5,871.9824,53.5,875.9824,49.5,871.9824" style="stroke:#181818;stroke-width:1.0;"/><line style="stroke:#181818;stroke-width:2.0;" x1="47.5" x2="183.5" y1="871.9824" y2="871.9824"/><text fill="#000000" font-family="sans-serif" font-size="13" lengthAdjust="spacing" textLength="108" x="59.5" y="867.2402">Display response</text><!--SRC=[hLNVQzim47xtNt5aBniiR2rz2YFGnDie990stLjVLEdYY2YI9ydjsh7_VIV9SIqdfJ1c2DYdx-w- -_4fRYTrpIpRWyEV3MgEbzQQnzkjv3kDpi5vuJg8DOqMt5YD5iu-zmuElYjclUIoPjh3xm9WnlYkYbvpeuo5T-Vn2IV62hH3wpUZVR8zRgN7rhAMpmXd5yMV4naNSaC_ZLcyo_YSG7ydBlKmIL7tM8z-EBGZO0x2Ituqtp8FSoLH-uW8tpbYiLZUwVTLxSSNPhoNMdw8G3BdkELybGMAhyUGDTg7barwpI6tngXu65xoev9v1clJM8v4Q6bqPShPHrWPvokBw-j58bRE2dh2X6guqj9BfkGpyz9eO5f0AHqtbFQfW89c0R5Y64zRmfEXpqrei_CHohYN3ynZwb9kIULcjhQ-b2MUXpp9Ee6vqHfvSacOT0BZ7faM58WG2NQlfDkYwFaSnsq9mvpLx5ugAWPTmaQlLnBTe6yiTUY1IKLf43prtmrpXBe3jfBEKu0XEgi-B4Y_l_GzWINRjU3C6IwlO6y4gkX1oCGjPhkDw3qJs7Dn3UUav4sZr5CYAV1uEdtRotnwrdP20sjWNY3joc6DLjQ4R59NmAA6mBPRaN97KqVuYvoEAlJ05F6khH4DzsxqvPESvWsAOlptjJhPxCuGvPDPI1T7utY3QXn42prCY4hdfj9qVRaxxRS86b70XcuU_4KxePa2GKBj-wUsT06ae9BaHeO0fpPeACZ3GWS49K7U13syilthC3T7GcTM44VHJQg_zzFOdWbyZS5IxWmOZWEid4tWkg7B8jO4Bbu-4L7EuegcEArukhgJUwR92B3e6kNT6ngaNkvfO2A37oezZAD49OD_r_Gx7IcUrD9mX1NIlnsbS255RRH3Sd-KVdlOWLT6-596TCgc5RPv4cxNMh6d5yYHEBkj_y-27PYw_U_PI06q7Ny1]--></g></svg>